<svg width="161" height="93" viewBox="0 0 161 93" fill="none" xmlns="http://www.w3.org/2000/svg">
<path d="M1.16816 89.8V80.425H2.81816V89.8H1.16816ZM19.7927 89.8H17.9302L13.0427 82.9812V89.8H11.3927V80.425H13.2552L18.1427 87.25V80.425H19.7927V89.8ZM32.1922 89.8H30.5422V81.875H27.6922V80.425H35.0359V81.875H32.1922V89.8ZM42.9417 89.8V80.425H48.8854V81.875H44.5917V84.3437H48.6354V85.7875H44.5917V88.35H48.9479V89.8H42.9417ZM64.2849 82.6062C63.9891 82.3104 63.6349 82.0833 63.2224 81.925C62.8141 81.7667 62.3787 81.6875 61.9162 81.6875C61.4453 81.6875 61.0141 81.7687 60.6224 81.9312C60.2349 82.0937 59.8995 82.3271 59.6162 82.6312C59.3328 82.9312 59.1141 83.2896 58.9599 83.7062C58.8057 84.1187 58.7287 84.5771 58.7287 85.0812C58.7287 85.5896 58.8057 86.0562 58.9599 86.4812C59.1182 86.9021 59.3391 87.2667 59.6224 87.575C59.9099 87.8833 60.2495 88.1208 60.6412 88.2875C61.0328 88.4542 61.4641 88.5375 61.9349 88.5375C62.3432 88.5375 62.7182 88.475 63.0599 88.35C63.4016 88.2208 63.7016 88.0375 63.9599 87.8C64.2224 87.5583 64.437 87.2687 64.6037 86.9312C64.7703 86.5937 64.8807 86.2187 64.9349 85.8062H61.9724V84.5312H66.3912L66.4349 85.1562C66.4349 85.8687 66.3245 86.5208 66.1037 87.1125C65.887 87.7 65.5766 88.2104 65.1724 88.6437C64.7682 89.0729 64.2891 89.4042 63.7349 89.6375C63.1807 89.8708 62.5682 89.9875 61.8974 89.9875C61.2057 89.9875 60.5641 89.8646 59.9724 89.6187C59.3849 89.3729 58.8703 89.0312 58.4287 88.5937C57.9912 88.1521 57.6495 87.6354 57.4037 87.0437C57.162 86.4521 57.0412 85.8083 57.0412 85.1125C57.0412 84.4208 57.162 83.7792 57.4037 83.1875C57.6495 82.5917 57.9891 82.0729 58.4224 81.6312C58.8599 81.1896 59.3724 80.8479 59.9599 80.6062C60.5516 80.3604 61.1912 80.2375 61.8787 80.2375C62.5328 80.2375 63.1578 80.35 63.7537 80.575C64.3537 80.8 64.8891 81.1229 65.3599 81.5437L64.2849 82.6062ZM82.2282 89.8H80.3969L78.3407 86.275H76.3032V89.8H74.6532V80.425H78.3719C79.1011 80.425 79.724 80.5417 80.2407 80.775C80.7573 81.0083 81.1552 81.3437 81.4344 81.7812C81.7136 82.2146 81.8532 82.7375 81.8532 83.35C81.8532 84 81.6927 84.5521 81.3719 85.0062C81.0511 85.4562 80.5969 85.7854 80.0094 85.9937L82.2282 89.8ZM76.3032 84.925H78.2532C78.8573 84.925 79.3261 84.7917 79.6594 84.525C79.9969 84.2583 80.1657 83.8833 80.1657 83.4C80.1657 82.9167 79.999 82.5417 79.6657 82.275C79.3323 82.0083 78.8615 81.875 78.2532 81.875H76.3032V84.925ZM91.3964 89.8H89.6652L93.4402 80.425H95.1964L98.9652 89.8H97.2339L96.3777 87.6125H92.2527L91.3964 89.8ZM92.7964 86.1687H95.8339L94.3152 82.2875L92.7964 86.1687ZM110.102 89.8H108.452V81.875H105.602V80.425H112.946V81.875H110.102V89.8ZM120.852 89.8V80.425H122.502V89.8H120.852ZM135.626 89.9875C134.918 89.9875 134.264 89.8667 133.664 89.625C133.068 89.3833 132.549 89.0437 132.107 88.6062C131.666 88.1646 131.322 87.6479 131.076 87.0562C130.835 86.4604 130.714 85.8125 130.714 85.1125C130.714 84.4083 130.835 83.7604 131.076 83.1687C131.322 82.5771 131.666 82.0625 132.107 81.625C132.549 81.1833 133.068 80.8417 133.664 80.6C134.264 80.3583 134.92 80.2375 135.632 80.2375C136.341 80.2375 136.993 80.3583 137.589 80.6C138.185 80.8417 138.703 81.1833 139.145 81.625C139.587 82.0625 139.928 82.5771 140.17 83.1687C140.412 83.7604 140.532 84.4083 140.532 85.1125C140.532 85.8125 140.412 86.4604 140.17 87.0562C139.928 87.6479 139.587 88.1646 139.145 88.6062C138.703 89.0437 138.185 89.3833 137.589 89.625C136.993 89.8667 136.339 89.9875 135.626 89.9875ZM135.626 88.5375C136.089 88.5375 136.516 88.4521 136.907 88.2812C137.299 88.1104 137.639 87.8708 137.926 87.5625C138.218 87.25 138.443 86.8854 138.601 86.4687C138.764 86.0521 138.845 85.6 138.845 85.1125C138.845 84.625 138.764 84.1729 138.601 83.7562C138.443 83.3396 138.218 82.9771 137.926 82.6687C137.639 82.3562 137.299 82.1146 136.907 81.9437C136.516 81.7729 136.089 81.6875 135.626 81.6875C135.168 81.6875 134.741 81.7729 134.345 81.9437C133.953 82.1146 133.612 82.3562 133.32 82.6687C133.032 82.9771 132.807 83.3396 132.645 83.7562C132.482 84.1729 132.401 84.625 132.401 85.1125C132.401 85.6 132.482 86.0521 132.645 86.4687C132.807 86.8854 133.032 87.25 133.32 87.5625C133.612 87.8708 133.953 88.1104 134.345 88.2812C134.741 88.4521 135.168 88.5375 135.626 88.5375ZM157.151 89.8H155.288L150.401 82.9812V89.8H148.751V80.425H150.613L155.501 87.25V80.425H157.151V89.8Z" fill="#123745"/>
<path opacity="0.66" d="M109.766 21.6263V20.9246L78.5866 3.03159L47.4946 21.0123L47.5386 56.886L78.7185 74.779L109.81 56.7983L109.766 23.4243C109.766 22.8104 109.766 22.2402 109.766 21.6263ZM107.304 23.3366C106.908 29.6518 104.489 35.4407 100.663 40.0017L81.8849 7.76796L107.304 22.3279V23.3366ZM78.6305 50.2638C70.7146 50.2638 63.5903 47.0624 58.357 41.8874L78.5426 6.84699L98.9041 41.8436C93.7147 47.0624 86.5464 50.2638 78.6305 50.2638ZM56.6419 40.0455C52.596 35.2653 50.0893 29.1255 49.9134 22.4156L75.2443 7.76796L56.6419 40.0455ZM55.3666 42.2821L49.9574 51.6233L49.9134 33.6865C51.2767 36.8441 53.1237 39.7385 55.3666 42.2821ZM57.1257 44.0802C62.4469 49.1674 69.6152 52.3689 77.4871 52.6759V71.2705L50.4411 55.7457L57.1257 44.0802ZM79.9059 52.6759C87.7338 52.3689 94.8582 49.1236 100.179 44.0364L106.908 55.6142L79.9059 71.2267V52.6759ZM107.348 51.5356L101.938 42.2383C104.181 39.7385 105.984 36.8879 107.348 33.7742V51.5356Z" fill="url(#paint0_linear_14_87)"/>
<path d="M22.036 62H15.2934V21.9735H0.919444V16.0278H36.41V21.9735H22.036V62Z" fill="#123745"/>
<path d="M124.329 62V16.0278H139.01C142.81 16.0278 146.069 16.6306 148.787 17.836C151.524 19.0211 153.619 20.7272 155.069 22.9543C156.52 25.161 157.245 27.8069 157.245 30.8922C157.245 33.957 156.52 36.6131 155.069 38.8607C153.619 41.0878 151.524 42.8041 148.787 44.0095C146.069 45.215 142.82 45.8178 139.04 45.8178H131.072V62H124.329ZM131.072 39.8721H138.397C142.218 39.8721 145.16 39.0854 147.223 37.5121C149.308 35.9184 150.35 33.7118 150.35 30.8922C150.35 28.0725 149.308 25.8863 147.223 24.3335C145.16 22.7602 142.218 21.9735 138.397 21.9735H131.072V39.8721Z" fill="#123745"/>
<path d="M99.439 41.3003C99.8187 41.9814 100.191 42.6593 100.577 43.3289C100.667 43.4864 100.569 43.5472 100.486 43.6194C99.6304 44.3727 98.8014 45.1621 97.9107 45.8695C94.2244 48.7941 90.1108 50.7832 85.5828 51.8435C83.4739 52.3375 81.338 52.6115 79.1721 52.6247C77.7229 52.6329 76.2768 52.5984 74.8371 52.4162C72.2361 52.0863 69.7047 51.4578 67.254 50.4927C63.4759 49.0042 60.0791 46.864 57.0873 44.0412C56.9054 43.8705 56.725 43.6981 56.5288 43.5094C56.9196 42.7856 57.3072 42.0684 57.698 41.3463C63.5534 47.1233 70.4847 50.2137 78.5788 50.2088C86.6729 50.2022 93.6089 47.1316 99.4406 41.2987L99.439 41.3003Z" fill="#123745"/>
<path d="M47.5742 55.6106L77.8052 3.49079L78.494 3.03159L79.1828 3.49079L109.643 55.6871V56.7586L107.96 57.677L78.494 6.8583L49.258 57.8301L47.5742 56.8351V55.6106Z" fill="#123745"/>
<defs>
<linearGradient id="paint0_linear_14_87" x1="60.2707" y1="17.7413" x2="104.954" y2="55.7785" gradientUnits="userSpaceOnUse">
<stop stop-color="#76C1A5"/>
<stop offset="1" stop-color="#EB9C6C"/>
</linearGradient>
</defs>
</svg>
