<svg width="400" height="400" viewBox="0 0 400 400" xmlns="http://www.w3.org/2000/svg"><mask id="satori_ms-id-0" maskUnits="userSpaceOnUse"><rect x="0" y="0" width="400" height="400" fill="#fff"/><path x="0" y="0" width="400" height="400" fill="#000"  stroke-width="0" d="M20,0 h360 a20,20 0 0 1 20,20 v360 a20,20 0 0 1 -20,20 h-360 a20,20 0 0 1 -20,-20 v-360 a20,20 0 0 1 20,-20"/></mask><defs><filter id="satori_s-id-0" x="-25%" y="-25%" width="150%" height="150%"><feGaussianBlur stdDeviation="10" result="b"/><feFlood flood-color="rgba(0,0,0,0.1)" in="SourceGraphic" result="f"/><feComposite in="f" in2="b" operator="in"/></filter></defs><g mask="url(#satori_ms-id-0)" filter="url(#satori_s-id-0)" opacity="1"><path x="0" y="4" width="400" height="400" fill="#fff" stroke="#fff" stroke-width="0" d="M20,4 h360 a20,20 0 0 1 20,20 v360 a20,20 0 0 1 -20,20 h-360 a20,20 0 0 1 -20,-20 v-360 a20,20 0 0 1 20,-20"/></g><mask id="satori_om-id"><rect x="0" y="0" width="400" height="400" fill="#fff"/></mask><path x="0" y="0" width="400" height="400" fill="#ffffff" d="M20,0 h360 a20,20 0 0 1 20,20 v360 a20,20 0 0 1 -20,20 h-360 a20,20 0 0 1 -20,-20 v-360 a20,20 0 0 1 20,-20"/><g  ><path fill="#1a1a1a" d="M200.4 301L175.2 301L175.2 191.0L130.4 191.0L130.4 168L175.2 168L175.2 135.8Q175.2 117.6 186.7 107.1Q198.2 96.6 218.3 96.6L218.3 96.6L263.4 96.6L263.4 119.6L218.3 119.6Q200.4 119.6 200.4 135.8L200.4 135.8L200.4 168L263.4 168L263.4 191.0L200.4 191.0L200.4 301Z "/></g></svg>